#tb 0: 1/25
#media_type 0: video
#codec_id 0: rawvideo
#dimensions 0: 720x576
#sar 0: 0/1
0,          0,          0,        1,   622080, 0x5775bb12
0,          1,          1,        1,   622080, 0x84d8395a
0,          2,          2,        1,   622080, 0x599d3a6b
0,          3,          3,        1,   622080, 0x1df1e9dc
0,          4,          4,        1,   622080, 0xf3255836
0,          5,          5,        1,   622080, 0xf46bc26e
0,          6,          6,        1,   622080, 0x76d491da
0,          7,          7,        1,   622080, 0x2c9f3ca6
0,          8,          8,        1,   622080, 0x5713e203
0,          9,          9,        1,   622080, 0x47776493
